<?xml version="1.0" encoding="UTF-8"?>
<svg width="400" height="260" viewBox="0 0 400 260" xmlns="http://www.w3.org/2000/svg" role="img" aria-label="体育器材插画">
  <defs>
    <linearGradient id="heroGradient" x1="0%" y1="0%" x2="100%" y2="100%">
      <stop offset="0%" stop-color="#165DFF" stop-opacity="0.95" />
      <stop offset="100%" stop-color="#7C3AED" stop-opacity="0.85" />
    </linearGradient>
    <linearGradient id="accentGradient" x1="0%" y1="0%" x2="0%" y2="100%">
      <stop offset="0%" stop-color="#22D3EE" stop-opacity="0.9" />
      <stop offset="100%" stop-color="#165DFF" stop-opacity="0.9" />
    </linearGradient>
  </defs>
  <rect width="400" height="260" fill="none" />
  <g transform="translate(26,20)">
    <rect x="0" y="60" width="348" height="120" rx="24" fill="url(#heroGradient)" opacity="0.12" />
    <g transform="translate(20,22)">
      <rect x="0" y="54" width="220" height="24" rx="12" fill="#FFFFFF" opacity="0.18" />
      <g>
        <circle cx="30" cy="34" r="24" fill="url(#heroGradient)" opacity="0.8" />
        <path d="M24 34.5l7-7 7 7-7 7-7-7z" fill="#FFFFFF" opacity="0.85" />
        <rect x="70" y="20" width="140" height="28" rx="8" fill="#FFFFFF" opacity="0.16" />
        <rect x="70" y="58" width="170" height="12" rx="6" fill="#FFFFFF" opacity="0.1" />
      </g>
    </g>
    <g transform="translate(250,18)">
      <rect x="0" y="0" width="46" height="110" rx="12" fill="url(#accentGradient)" opacity="0.9" />
      <rect x="64" y="18" width="16" height="74" rx="8" fill="url(#accentGradient)" opacity="0.75" />
      <rect x="96" y="30" width="28" height="52" rx="9" fill="url(#accentGradient)" opacity="0.6" />
      <circle cx="23" cy="132" r="23" fill="#22D3EE" opacity="0.85" />
      <path d="M12 132c0-6.6 5.4-12 12-12s12 5.4 12 12-5.4 12-12 12" stroke="#FFFFFF" stroke-width="4" stroke-linecap="round" stroke-linejoin="round" opacity="0.9" />
    </g>
  </g>
  <g transform="translate(48,190)" opacity="0.6">
    <rect x="0" y="0" width="86" height="16" rx="8" fill="#1D2129" opacity="0.08" />
    <rect x="102" y="0" width="64" height="16" rx="8" fill="#1D2129" opacity="0.08" />
    <rect x="182" y="0" width="118" height="16" rx="8" fill="#1D2129" opacity="0.08" />
  </g>
</svg>
